Coordinates
nRows=5
nColumns=38

# SIMM Motion File Header:
name Coordinates
datacolumns 38
datarows 5
otherdata 1
range 2.19999999999999970000 2.20399999999999970000

Units are S.I. units (second, meters, Newtons, ...)
Angles are in degrees.

endheader
time	pelvis_tilt	pelvis_list	pelvis_rotation	pelvis_tx	pelvis_ty	pelvis_tz	hip_flexion_r	hip_adduction_r	hip_rotation_r	knee_angle_r	ankle_angle_r	subtalar_angle_r	mtp_angle_r	hip_flexion_l	hip_adduction_l	hip_rotation_l	knee_angle_l	ankle_angle_l	subtalar_angle_l	mtp_angle_l	lumbar_extension	lumbar_bending	lumbar_rotation	arm_flex_r	arm_add_r	arm_rot_r	elbow_flex_r	pro_sup_r	wrist_flex_r	wrist_dev_r	arm_flex_l	arm_add_l	arm_rot_l	elbow_flex_l	pro_sup_l	wrist_flex_l	wrist_dev_l
      2.19999999999999970000	     -0.27560760024890552000	      1.34387411615765880000	      1.29950811501878150000	      1.00124383836289010000	      1.02296745406096150000	     -0.45942072645008969000	     26.57742810203503600000	      2.77443964473710380000	      9.78014505458596160000	    -78.34341784580065800000	      4.24279320266925190000	      0.00000000000006389724	     -0.00000000000020384497	     14.79630045475920900000	      8.40735064019061260000	     11.76080615284217300000	    -42.20821195713475800000	     27.26206293836522900000	     -0.00000000000002028822	      0.00000000000001339809	     -8.67029895108268890000	     -3.83395003502463490000	     -1.48126293636453890000	    -14.94103868024868500000	    -16.00435823185813800000	     -5.47883664049653960000	     88.59274467842698200000	    128.32746858682930000000	      0.00000000000001107704	      0.00000000000001046070	     -7.60923132564280460000	    -11.49082098720300500000	     -6.01259768982174590000	    121.73209104354179000000	     86.46608931623464400000	      0.00000000000003781124	      0.00000000000002745792
      2.20100000000000010000	     -0.27474888527055891000	      1.31293131049185390000	      1.28991320796398280000	      1.00105088674255670000	      1.02333328072330950000	     -0.45938922244932323000	     26.70576700681181800000	      2.77514046466929500000	      9.76140481503595400000	    -78.17881711658178300000	      4.33867830516405120000	      0.00000000000006407894	     -0.00000000000020435636	     14.61234560148921200000	      8.36896770016141820000	     11.78550601107672300000	    -42.09178029203215500000	     27.28774515498157900000	     -0.00000000000002042986	      0.00000000000001326133	     -8.69223534956348230000	     -3.79035131173234910000	     -1.59126510694058610000	    -15.00664602850017600000	    -16.01667326549640800000	     -5.50716658023565930000	     88.66452764406879800000	    128.13839688687582000000	      0.00000000000001110444	      0.00000000000001042644	     -7.49368777447617700000	    -11.50633893941357900000	     -5.98984356483266470000	    121.86564959762670000000	     86.59795746439355900000	      0.00000000000003792195	      0.00000000000002755705
      2.20200000000000000000	     -0.27520064573569913000	      1.28137670319682460000	      1.27888166467460860000	      1.00086404851942090000	      1.02370435308959280000	     -0.45935502126789574000	     26.83301363521297800000	      2.77693369841380560000	      9.74350427783547520000	    -78.00872885760640000000	      4.43320619438573970000	      0.00000000000006426302	     -0.00000000000020486710	     14.42759809578392100000	      8.32914435648633140000	     11.80893624218007800000	    -41.97148721152807100000	     27.31163794531715900000	     -0.00000000000002059140	      0.00000000000001313680	     -8.71152112210538650000	     -3.74618438236194650000	     -1.69956357255927300000	    -15.07396094579878500000	    -16.03093764358807900000	     -5.53160868153596040000	     88.73890858632823600000	    127.93012917342452000000	      0.00000000000001113397	      0.00000000000001039041	     -7.38036576005503340000	    -11.52138854788820200000	     -5.96557814386041580000	    122.00441861951140000000	     86.72791763056191900000	      0.00000000000003803348	      0.00000000000002765302
      2.20299999999999980000	     -0.27701955381923304000	      1.24921681674736740000	      1.26640915241318750000	      1.00068335348516890000	      1.02408050592587860000	     -0.45931810400775974000	     26.95921538646025800000	      2.77981528861279160000	      9.72643773365699540000	    -77.83317238214621600000	      4.52635418393972260000	      0.00000000000006445081	     -0.00000000000020537698	     14.24215407747491500000	      8.28790044899013440000	     11.83108134881790700000	    -41.84739757932622700000	     27.33368630569540200000	     -0.00000000000002077681	      0.00000000000001300990	     -8.72808311358237000000	     -3.70146429212452240000	     -1.80613096076500450000	    -15.14297163674043200000	    -16.04713309761872300000	     -5.55214230781657210000	     88.81568448113328900000	    127.70334462531982000000	      0.00000000000001116417	      0.00000000000001035661	     -7.26923183604820360000	    -11.53598510405344700000	     -5.93968844929465960000	    122.14816908239413000000	     86.85576704146868100000	      0.00000000000003814595	      0.00000000000002774235
      2.20399999999999970000	     -0.28025700678291476000	      1.21645954347343200000	      1.25249768697176280000	      1.00050881608325510000	      1.02446158149751110000	     -0.45927845698951952000	     27.08441527626128900000	      2.78377778561427960000	      9.71019425915891790000	    -77.65216722720100500000	      4.61810128279718150000	      0.00000000000006463954	     -0.00000000000020588720	     14.05610812712010600000	      8.24525868241849660000	     11.85193070034372700000	    -41.71958220594014900000	     27.35382920313029900000	     -0.00000000000002095754	      0.00000000000001290442	     -8.74185806469275310000	     -3.65620673810825590000	     -1.91094616473625110000	    -15.21366450431900900000	    -16.06523691645667300000	     -5.56875593935999810000	     88.89466133895761900000	    127.45875302024065000000	      0.00000000000001119471	      0.00000000000001032190	     -7.16024836721717150000	    -11.55014553780964800000	     -5.91206382871278800000	    122.29666970354241000000	     86.98131447918676400000	      0.00000000000003825618	      0.00000000000002783547
